<?xml version="1.0" standalone="no"?><!DOCTYPE svg PUBLIC "-//W3C//DTD SVG 1.1//EN" "http://www.w3.org/Graphics/SVG/1.1/DTD/svg11.dtd"><svg t="1617272280671" class="icon" viewBox="0 0 1024 1024" version="1.1" xmlns="http://www.w3.org/2000/svg" p-id="1741" xmlns:xlink="http://www.w3.org/1999/xlink" width="128" height="128"><defs><style type="text/css"></style></defs><path d="M255.2 888c364 14.4 496.8-231.2 595.2-476.8 30.4-76-27.2-171.2-159.2-176-62.4 0-117.6 41.6-133.6 101.6-58.4 213.6-216.8 396.8-384.8 492.8-28 16-16.8 59.2 16 59.2h66.4z" fill="#FF5576" p-id="1742"></path><path d="M771.2 460c-19.2-3.2-39.2 6.4-47.2 24.8-69.6 155.2-164 272-332.8 332.8-63.2 22.4-36.8 69.6 6.4 61.6 213.6-38.4 325.6-188 405.6-357.6 12-26.4-4-56.8-32-61.6z" fill="#C95065" p-id="1743"></path><path d="M713.908246 386.061793a131.2 74.4 22.968 1 0 58.064283-137.003573 131.2 74.4 22.968 1 0-58.064283 137.003573Z" fill="#52DDB2" p-id="1744"></path><path d="M285.6 912c-10.4 0-20 0-30.4-0.8h-66.4c-25.6 0-47.2-16.8-53.6-41.6-6.4-24.8 4-49.6 26.4-62.4 177.6-102.4 320.8-285.6 373.6-478.4 19.2-70.4 84-119.2 156.8-119.2 13.6 0 24 10.4 24 24s-10.4 24-24 24c-52 0-96.8 34.4-110.4 84-56 204.8-207.2 399.2-396 507.2-3.2 1.6-4.8 4.8-3.2 8.8 0.8 2.4 2.4 5.6 7.2 5.6h68c9.6 0 19.2 0.8 28.8 0.8 329.6 0 448.8-228 542.4-462.4 11.2-28 7.2-58.4-10.4-84-6.4-8.8-13.6-16.8-23.2-24.8-6.4-4.8-13.6-9.6-20.8-13.6-12-6.4-16-20.8-9.6-32.8 6.4-12 20.8-16 32.8-9.6 10.4 5.6 19.2 12 28 18.4 12.8 10.4 23.2 21.6 32 34.4 27.2 39.2 32.8 86.4 15.2 128.8-95.2 240-227.2 493.6-587.2 493.6z" fill="#444B54" p-id="1745"></path><path d="M793.6 430.4c-44.8 0-92-17.6-135.2-51.2-10.4-8-12-23.2-4-33.6 8-10.4 23.2-12 33.6-4 52 40 108.8 52 152 31.2 12-5.6 26.4-0.8 32 11.2 5.6 12 0.8 26.4-11.2 32-20.8 8.8-44 14.4-67.2 14.4z" fill="#444B54" p-id="1746"></path><path d="M428 698.4c-5.6 0-11.2-1.6-15.2-5.6-10.4-8.8-11.2-24-3.2-33.6 58.4-69.6 107.2-148.8 140-228.8 4.8-12 19.2-18.4 31.2-12.8 12 4.8 18.4 19.2 12.8 31.2C559.2 534.4 509.6 616 446.4 689.6c-4.8 6.4-11.2 8.8-18.4 8.8zM364.8 766.4c-6.4 0-12.8-2.4-16.8-7.2-0.8-0.8-2.4-2.4-3.2-4-0.8-1.6-1.6-2.4-2.4-4-0.8-1.6-0.8-3.2-1.6-4.8s-0.8-3.2-0.8-4.8c0-6.4 2.4-12.8 7.2-16.8 5.6-5.6 13.6-8 21.6-6.4 1.6 0 3.2 0.8 4.8 1.6 1.6 0.8 2.4 1.6 4 2.4 1.6 0.8 2.4 1.6 3.2 3.2 4.8 4 7.2 10.4 7.2 16.8s-2.4 12.8-7.2 16.8c-4 4.8-9.6 7.2-16 7.2z" fill="#FFFFFF" p-id="1747"></path><path d="M791.2 341.6c-4.8 0-8.8-1.6-12.8-4-18.4-12-28-32-28-60 0-27.2 8-52.8 28-87.2l38.4-67.2c6.4-11.2 21.6-15.2 32.8-8.8s15.2 21.6 8.8 32.8l-38.4 66.4c-15.2 26.4-21.6 44.8-21.6 63.2 0 10.4 1.6 17.6 5.6 20 11.2 7.2 14.4 21.6 7.2 32.8-4.8 8-12 12-20 12z" fill="#444B54" p-id="1748"></path></svg>