<?xml version="1.0" standalone="no"?><!DOCTYPE svg PUBLIC "-//W3C//DTD SVG 1.1//EN" "http://www.w3.org/Graphics/SVG/1.1/DTD/svg11.dtd"><svg t="1616888689106" class="icon" viewBox="0 0 1578 1024" version="1.1" xmlns="http://www.w3.org/2000/svg" p-id="13693" xmlns:xlink="http://www.w3.org/1999/xlink" width="197.25" height="128"><defs><style type="text/css"></style></defs><path d="M789.333333 0c315.946667 0 598.912 198.613333 789.333334 512-190.421333 313.386667-473.386667 512-789.333334 512-315.946667 0-598.912-198.613333-789.333333-512C190.421333 198.613333 473.386667 0 789.333333 0z m0 64C519.125333 64 264.426667 224.554667 80.746667 504.021333L75.541333 512l5.205334 8c181.482667 276.096 432.256 436.117333 698.837333 439.936L789.333333 960c270.208 0 524.885333-160.533333 708.586667-440L1503.146667 512l-5.205334-7.978667C1316.437333 227.904 1065.685333 67.882667 799.082667 64.064L789.333333 64z m0 170.666667c153.173333 0 277.333333 124.16 277.333334 277.333333s-124.16 277.333333-277.333334 277.333333-277.333333-124.16-277.333333-277.333333 124.16-277.333333 277.333333-277.333333z m0 64c-117.824 0-213.333333 95.509333-213.333333 213.333333s95.509333 213.333333 213.333333 213.333333 213.333333-95.509333 213.333334-213.333333-95.509333-213.333333-213.333334-213.333333z" p-id="13694" fill="#ffffff"></path></svg>