<?xml version="1.0" standalone="no"?><!DOCTYPE svg PUBLIC "-//W3C//DTD SVG 1.1//EN" "http://www.w3.org/Graphics/SVG/1.1/DTD/svg11.dtd"><svg t="1616888580788" class="icon" viewBox="0 0 1024 1024" version="1.1" xmlns="http://www.w3.org/2000/svg" p-id="12557" xmlns:xlink="http://www.w3.org/1999/xlink" width="128" height="128"><defs><style type="text/css"></style></defs><path d="M415.136 128.48c96.032 4.256 171.616 70.72 171.616 150.656 0 19.968-0.576 39.424-1.76 58.336l-1.408 18.784-1.664 17.216h186.016c72 0 114.72 51.232 111.872 128.064l-0.416 7.296-0.672 7.424-5.024 41.024c-10.944 86.88-22.24 160.48-34.144 222.176-18.272 70.912-77.568 114.048-155.264 116.864l-8.096 0.128H176a32 32 0 0 1-31.776-28.256l-0.224-3.744V405.504a32 32 0 0 1 28.256-31.776l3.744-0.224 110.784-0.032 2.144-2.08c17.952-18.944 41.952-64.96 57.632-114.016l2.88-9.248 7.712-26.88c7.68-25.152 16.704-49.728 27.296-73.696a32 32 0 0 1 30.688-19.072z m18.88 66.464l-4.32 11.264a611.2 611.2 0 0 0-11.328 33.76l-7.616 26.496c-20.704 70.304-56.352 136.864-90.752 162.496v403.456l356.192 0.032c48.96 0 83.52-20.992 97.44-56.256l1.92-5.408 1.6-5.344 4.832-26.176c8.096-45.056 16.032-97.152 23.84-156.16l4.672-36.192 4.64-37.888c5.056-46.944-10.176-69.536-42.656-71.392l-4.544-0.128h-222.496a32 32 0 0 1-31.584-36.992c5.92-37.6 8.896-78.048 8.896-121.376 0-35.296-31.232-69.12-77.76-81.696l-6.4-1.6-4.576-0.896zM208 437.472v394.976H256V437.44H208z" p-id="12558" fill="#ffffff"></path></svg>