<?xml version="1.0" standalone="no"?><!DOCTYPE svg PUBLIC "-//W3C//DTD SVG 1.1//EN" "http://www.w3.org/Graphics/SVG/1.1/DTD/svg11.dtd"><svg t="1617290256021" class="icon" viewBox="0 0 1024 1024" version="1.1" xmlns="http://www.w3.org/2000/svg" p-id="1917" xmlns:xlink="http://www.w3.org/1999/xlink" width="128" height="128"><defs><style type="text/css"></style></defs><path d="M713.4 776c-27.2 0-57.3-5.8-90.4-12.2-43.1-8.3-91.9-17.7-146.4-17-25 0.3-53.6 2.8-81.2 5.2-49.2 4.3-100.1 8.8-141.1 2-68.9-11.4-87.8-52.3-91.5-84.7-2.1-18.1-4.7-45.3-3.9-73.4 0.5-15.5 13.4-27.6 28.9-27.1 15.5 0.5 27.6 13.4 27.1 28.9-0.8 24.5 1.6 49 3.5 65.3 1.6 14 6.5 29.5 45 35.8 34 5.6 81.3 1.5 127-2.6 28.7-2.5 58.3-5.1 85.5-5.4 60.2-0.7 114.2 9.7 157.6 18 42.6 8.2 79.4 15.3 102.9 8.4 9.2-2.7 30.7-9 42.7-68.6 0.3-1.7 0.6-3.4 0.7-5.2 0.3-3.7 1.2-7.3 2.9-10.6 5.1-10.2 9.3-23.1 12.4-38.6 3.1-15.2 17.8-25 33-21.9 15.2 3.1 25 17.8 21.9 33-3.7 18.4-8.6 34.1-14.9 47.8-0.3 2.2-0.7 4.5-1.1 6.6-6.3 31.4-15.8 55.4-28.9 73.6-13.5 18.7-31.3 31.3-52.9 37.7-12.2 3.5-25.1 5-38.8 5zM491.8 395.4c-1.2 0-2.3-0.1-3.5-0.2-15.7-2-31.2-3-45.9-3-15.5 0-28-12.5-28-28s12.5-28 28-28c17 0 34.8 1.1 52.9 3.4 15.3 1.9 26.2 15.9 24.3 31.3-1.8 14.1-13.8 24.5-27.8 24.5z" fill="#21733e" p-id="1918"></path><path d="M736.1 714.1c-30.6 0-64.9-8.2-102.1-17.2-47.4-11.4-101.1-24.2-159-23.6-26.8 0.3-57.6 3.5-87.5 6.6-48.3 5-98.2 10.2-138.2 4.2-67.8-10.2-86.4-50.5-90-82.5-5.7-49.9 8.7-104.3 39.7-149.3 34.4-50 85.7-85.8 148.4-103.5 14.9-4.2 30.4 4.4 34.6 19.3s-4.4 30.4-19.3 34.6C255.9 432.9 206.9 524.5 215 595.3c1.5 13.3 6.2 28 42.7 33.5 33 5 79.3 0.2 124.1-4.5 31.1-3.2 63.3-6.6 92.6-6.9 64.8-0.7 122.1 13 172.7 25.1 51.8 12.4 96.6 23.2 119.5 8.5 13.2-8.4 22.6-27 28.6-56.8 4.2-20.6-10.7-49.2-40.7-78.4-33.2-32.3-81.7-62.6-136.4-85.4-9.8-4.1-19.8-7.9-29.8-11.4-14.6-5.1-22.3-21.1-17.2-35.7 5.1-14.6 21.1-22.3 35.7-17.2 11 3.8 22 8.1 32.8 12.5 61.1 25.4 115.7 59.8 153.9 96.9 45.2 43.9 64.8 88.8 56.5 129.6-9.2 45.5-26.6 75.9-53.3 93-18.1 11.7-38.4 16-60.6 16z" fill="#21733e" p-id="1919"></path><path d="M395 411.1c-89.1 23.8-130.2 101.2-123.1 163.3 8.2 71.3 127.3 35.4 210.8 34.4 132.6-1.5 230.8 86.9 255.1-33.5 9.6-47.8-57.3-107.9-142.1-143.1-7.5-3.1-15.2-6.1-23-8.8 0.1 0.1-105-31.7-177.7-12.3z" fill="#21733e" p-id="1920"></path><path d="M374.1 560.1c-5.7 0-11.3-2.4-15.3-7.1-7.1-8.4-6.1-21 2.3-28.2l75.3-63.8c8.4-7.1 21-6.1 28.2 2.3 7.1 8.4 6.1 21-2.3 28.2L387 555.3c-3.7 3.2-8.3 4.8-12.9 4.8zM504.7 576c-5.5 0-11-2.3-14.9-6.7-7.3-8.2-6.6-20.9 1.6-28.2l73.4-65.4c8.2-7.3 20.9-6.6 28.2 1.6 7.3 8.2 6.6 20.9-1.6 28.2L518 571c-3.8 3.4-8.5 5-13.3 5zM863.3 155.1c12 0 21.7 9.7 21.7 21.7s-9.7 21.7-21.7 21.7-21.7-9.7-21.7-21.7 9.7-21.7 21.7-21.7m0-40c-34 0-61.7 27.7-61.7 61.7s27.7 61.7 61.7 61.7 61.7-27.7 61.7-61.7-27.7-61.7-61.7-61.7zM772.5 901h-0.2l-69.5-1c-8.3-0.1-14.9-6.9-14.8-15.2 0.1-8.2 6.8-14.8 15-14.8h0.2l69.5 1c8.3 0.1 14.9 6.9 14.8 15.2-0.1 8.2-6.8 14.8-15 14.8z" fill="#21733e" p-id="1921"></path><path d="M737.2 935.2h-0.2c-8.3-0.1-14.9-6.9-14.8-15.2l1-69.5c0.1-8.2 6.8-14.8 15-14.8h0.2c8.3 0.1 14.9 6.9 14.8 15.2l-1 69.5c-0.1 8.3-6.8 14.8-15 14.8z" fill="#21733e" p-id="1922"></path><path d="M224.5 855m-30.9 0a30.9 30.9 0 1 0 61.8 0 30.9 30.9 0 1 0-61.8 0Z" fill="#21733e" p-id="1923"></path><path d="M465.4 172.9m-20.7 0a20.7 20.7 0 1 0 41.4 0 20.7 20.7 0 1 0-41.4 0Z" fill="#21733e" p-id="1924"></path><path d="M150.3 132.1v30.8M150.3 172.9c-5.5 0-10-4.5-10-10v-30.8c0-5.5 4.5-10 10-10s10 4.5 10 10v30.8c0 5.5-4.5 10-10 10zM150.3 214.7v30.8M150.3 255.5c-5.5 0-10-4.5-10-10v-30.8c0-5.5 4.5-10 10-10s10 4.5 10 10v30.8c0 5.5-4.5 10-10 10z" fill="#21733e" p-id="1925"></path><path d="M93.6 188.8h30.8M124.4 198.8H93.6c-5.5 0-10-4.5-10-10s4.5-10 10-10h30.8c5.5 0 10 4.5 10 10s-4.5 10-10 10z" fill="#21733e" p-id="1926"></path><path d="M176.2 188.8H207M207 198.8h-30.8c-5.5 0-10-4.5-10-10s4.5-10 10-10H207c5.5 0 10 4.5 10 10s-4.5 10-10 10z" fill="#21733e" p-id="1927"></path><path d="M110.2 228.9l21.8-21.8M110.2 238.9c-2.6 0-5.1-1-7.1-2.9-3.9-3.9-3.9-10.2 0-14.1l21.8-21.8c3.9-3.9 10.2-3.9 14.1 0s3.9 10.2 0 14.1L117.2 236c-1.9 1.9-4.4 2.9-7 2.9z" fill="#21733e" p-id="1928"></path><path d="M168.6 170.5l21.8-21.8M168.6 180.5c-2.6 0-5.1-1-7.1-2.9-3.9-3.9-3.9-10.2 0-14.1l21.8-21.8c3.9-3.9 10.2-3.9 14.1 0 3.9 3.9 3.9 10.2 0 14.1l-21.8 21.8c-1.9 1.9-4.4 2.9-7 2.9z" fill="#21733e" p-id="1929"></path><path d="M190.4 228.9l-21.8-21.8M190.4 238.9c-2.6 0-5.1-1-7.1-2.9l-21.8-21.8c-3.9-3.9-3.9-10.2 0-14.1 3.9-3.9 10.2-3.9 14.1 0l21.8 21.8c3.9 3.9 3.9 10.2 0 14.1-1.9 1.9-4.5 2.9-7 2.9z" fill="#21733e" p-id="1930"></path><path d="M132 170.5l-21.8-21.8M132 180.5c-2.6 0-5.1-1-7.1-2.9l-21.8-21.8c-3.9-3.9-3.9-10.2 0-14.1 3.9-3.9 10.2-3.9 14.1 0l21.8 21.8c3.9 3.9 3.9 10.2 0 14.1-1.9 1.9-4.5 2.9-7 2.9z" fill="#21733e" p-id="1931"></path></svg>