<?xml version="1.0" standalone="no"?><!DOCTYPE svg PUBLIC "-//W3C//DTD SVG 1.1//EN" "http://www.w3.org/Graphics/SVG/1.1/DTD/svg11.dtd"><svg t="1617273362929" class="icon" viewBox="0 0 1299 1024" version="1.1" xmlns="http://www.w3.org/2000/svg" p-id="1114" xmlns:xlink="http://www.w3.org/1999/xlink" width="162.375" height="128"><defs><style type="text/css"></style></defs><path d="M249.062 712.16c-10.087 13.242 34.825 89.367 105.825 119.092 97.098 40.655 148.239-45.124 305.804-59.458 182.514-16.61 302.402 81.309 358.928 17.91 12.187-13.676 27.247-41.393 18.181-56.947-6.006-10.311-29.195-16.070-76.089-19.377-67.516-4.74-67.738-16.563-137.636-25.852-163.301-21.805-311.094 19.388-311.094 19.388-68.795 19.177-99.081 39.307-158.35 31.729-60.502-7.718-97.908-36.527-105.567-26.486z" fill="#9A2700" p-id="1115"></path><path d="M380.365 833.409c1.174 3.132 13.279 2.346 61.581-8.492 116.628-26.064 143.946-43.142 195.721-51.61 22.181-3.612 72.724 2.041 173.798 13.336 131.242 14.675 191.287 27.435 213.246-4.012 7.039-10.133 10.216-24.879 5.49-36.362-11.834-28.68-70.003-29.736-110.423-29.736-192.12 0-288.174 0-403.5 44.573-66.062 25.628-138.985 64.020-135.911 72.302z" fill="#731D00" p-id="1116"></path><path d="M451.377 270.598c-32.913 15.131-127.701 60.349-172.413 162.397-47.494 108.57-34.591 272.422 52.526 309.803 34.204 14.675 57.1-5.936 148.228-29.148 0 0 111.807-28.468 247.062-29.499 189.035-1.442 256.305 64.959 321.005 13.336 47.084-37.536 53.452-106.248 54.331-117.813 4.528-59.633-22.556-104.511-35.19-125.413-82.73-137.085-376.533-293.605-615.549-183.663z" fill="#CC3400" p-id="1117"></path><path d="M350.783 773.238c-22.123 0-43.951-5.606-66.86-20.139-49.124-31.248-83.585-93.72-94.519-171.511-10.499-74.694 1.666-154.010 33.371-217.656 27.131-54.461 69.368-99.843 125.542-134.949 3.528-2.235 7.823-3.563 12.427-3.563 12.958 0 23.461 10.504 23.461 23.461 0 8.352-4.365 15.685-10.937 19.843-48.811 30.484-85.289 69.543-108.49 116.181-57.369 115.162-35.389 277.993 44.373 328.652 14.075 8.915 27.165 12.809 41.91 12.809 22.156 0 47.963-8.773 85.967-22.485 57.933-20.89 137.236-49.498 255.237-50.286 85.849-0.574 154.399 13.618 209.514 25.020 76.361 15.8 114.282 22.156 141.612-5.677 28.574-29.101 42.544-89.579 32.503-140.686-6.487-33.019-22.286-55.973-28.257-64.619-25.43-36.924-101.427-113.965-206.559-174.889-85.169-49.381-214.618-102.118-347.818-73.228-1.044 0.164-2.246 0.258-3.472 0.258-12.956 0-23.459-10.503-23.459-23.459 0-10.646 7.090-19.635 16.807-22.502 63.857-13.929 131.797-12.369 202.15 4.533 58.976 14.193 119.302 38.989 179.287 73.756 104.735 60.689 188.332 140.438 221.69 188.848 7.46 10.838 27.295 39.622 35.658 82.19 6.124 31.154 5.29 66.249-2.346 98.822-8.092 34.579-22.872 63.551-42.731 83.785-46.473 47.329-107.42 34.72-184.601 18.767-52.947-10.957-118.797-24.632-199.699-24.046-109.942 0.739-181.808 26.674-239.636 47.505-37.288 13.454-70.050 25.266-102.129 25.266z" fill="#000000" p-id="1118"></path><path d="M421.488 241.273c-0.007 0-0.018 0-0.027 0-12.956 0-23.459-10.503-23.459-23.459 0-9.667 5.846-17.966 14.196-21.56l2.064-0.856c2.588-1.070 5.59-1.688 8.739-1.688 12.956 0 23.459 10.503 23.459 23.459 0 9.603-5.77 17.858-14.032 21.488l-1.827 0.762c-2.692 1.171-5.828 1.852-9.121 1.852zM374.476 859.615c-22.145 0-42.403-5.278-62.601-16.175-60.794-32.843-98.647-105.426-112.488-215.826-0.117-0.88-0.184-1.898-0.184-2.932 0-12.958 10.504-23.461 23.461-23.461 11.923 0 21.771 8.894 23.265 20.411 11.859 94.624 41.534 155.314 88.231 180.497 35.529 19.166 65.253 10.159 123.795-10.345 49.875-17.466 111.936-39.2 201.622-43.401 80.934-3.802 159.841 8.059 223.228 17.594 34.708 5.22 64.688 9.736 87.656 10.628 26.098 1.008 32.291-3.331 33.019-3.941 0.234-0.762 0.55-3.331 0.773-5.231 1.898-16.854 6.19-32.249 12.558-46.512 8.767-27.827 33.4-62.65 65.437-88.734-23.204 21.635-16.837 18.476-9.732 18.476 12.958 0 23.461 10.503 23.461 23.461 0 5.852-2.143 11.204-5.687 15.313-21.299 24.34-36.065 54.956-41.22 88.733 3.576-19.146 1.457-7.839 1.192 3.922-0.132-3.177-0.918 3.333-4.296 10.571-14.756 31.588-54.848 31.212-69.944 31.059-26.814-0.258-60.817-5.372-100.194-11.295-61.347-9.232-137.694-20.714-214.043-17.124-82.847 3.894-141.331 24.374-188.319 40.831-29.324 10.264-54.612 19.132-79.949 22.286-5.73 0.761-12.357 1.196-19.085 1.196zM432.386 585.329c-12.948-0.010-23.439-10.511-23.439-23.459 0-4.059 1.031-7.878 2.845-11.208l115.864-216.277c4.037-7.425 11.779-12.382 20.678-12.382 12.957 0 23.46 10.503 23.46 23.46 0 4.058-1.030 7.873-2.842 11.201l-115.864 216.277c-4.036 7.429-11.78 12.386-20.681 12.386-0.007 0-0.016 0-0.022 0zM627.227 529.471c-12.947-0.011-23.438-10.51-23.438-23.459 0-4.111 1.058-7.975 2.915-11.334 15.903-29.204 24.817-49.366 34.248-70.657s19.119-43.154 35.986-74.189c4.057-7.353 11.761-12.253 20.609-12.253 12.956 0 23.459 10.503 23.459 23.459 0 4.108-1.057 7.969-2.911 11.328-15.903 29.204-24.817 49.367-34.248 70.657s-19.108 43.154-35.974 74.189c-4.058 7.357-11.762 12.257-20.612 12.257-0.011 0-0.022 0-0.034 0z" fill="#000000" p-id="1119"></path></svg>