<?xml version="1.0" standalone="no"?><!DOCTYPE svg PUBLIC "-//W3C//DTD SVG 1.1//EN" "http://www.w3.org/Graphics/SVG/1.1/DTD/svg11.dtd"><svg t="1617290169268" class="icon" viewBox="0 0 1024 1024" version="1.1" xmlns="http://www.w3.org/2000/svg" p-id="1713" xmlns:xlink="http://www.w3.org/1999/xlink" width="128" height="128"><defs><style type="text/css"></style></defs><path d="M374 415l-0.6 345.5h249l1.9-347s-62.2-22.7-116.1 20.4S374 415 374 415z" fill="#21733e" p-id="1714"></path><path d="M647.8 843.6H348.4c-32.9 0-59.7-26.8-59.7-59.7v-83.3c0-11.5 4.2-22.8 11.7-31.9l9.1-11-10.5-12.2c-8.1-9.3-12.5-21-12.5-32.9v-88c0-15.5 12.5-28 28-28s28 12.5 28 28v85.6l12.6 14.5c16.4 18.9 16.8 45.6 0.8 64.8L344.8 703v80.9c0 2.1 1.7 3.7 3.7 3.7h299.4c2.1 0 3.7-1.7 3.7-3.7V703l-11.1-13.5c-15.9-19.3-15.6-45.9 0.8-64.8l12.6-14.5V389.3l-112.3-86.2H458.2c-2.6 0-4.4 0.8-5.1 1.3l-110.8 85c-1.5 14-13.4 25-27.8 25-15.5 0-28-12.5-28-28 0-15.7 7.6-30.5 20.7-40.6L418.9 260c10.9-8.3 24.8-12.9 39.2-12.9h83.3c12.3 0 24.2 3.9 33.6 11.1l114.1 87.6c13.2 10.1 20.7 24.9 20.7 40.6v226.2c0 11.9-4.5 23.6-12.5 32.9l-10.5 12.1 9.1 11c7.5 9.1 11.7 20.5 11.7 31.9v83.3c0 33-26.8 59.8-59.8 59.8z" fill="#21733e" p-id="1715"></path><path d="M314.4 486.4c-15.5 0-28-12.5-28-28v-11.3c0-15.5 12.5-28 28-28s28 12.5 28 28v11.3c0 15.5-12.5 28-28 28zM569 669.9H427.2c-11 0-20-9-20-20s9-20 20-20H569c11 0 20 9 20 20s-9 20-20 20zM536.4 230.6h-74.8c-15.5 0-28-12.5-28-28s12.5-28 28-28h74.8c15.5 0 28 12.5 28 28s-12.5 28-28 28z" fill="#21733e" p-id="1716"></path><path d="M143.2 134.5c12 0 21.7 9.7 21.7 21.7s-9.7 21.7-21.7 21.7-21.7-9.7-21.7-21.7 9.7-21.7 21.7-21.7m0-40c-34 0-61.7 27.7-61.7 61.7s27.7 61.7 61.7 61.7 61.7-27.7 61.7-61.7-27.7-61.7-61.7-61.7zM146.7 907.1h-0.2c-8.3-0.1-14.9-6.9-14.8-15.2l1-69.5c0.1-8.2 6.8-14.8 15-14.8h0.2c8.3 0.1 14.9 6.9 14.8 15.2l-1 69.5c-0.2 8.3-6.9 14.8-15 14.8z" fill="#21733e" p-id="1717"></path><path d="M196.9 857.9v0.2c-0.1 8.3-6.9 14.9-15.2 14.8l-69.5-1c-8.2-0.1-14.8-6.8-14.8-15v-0.2c0.1-8.3 6.9-14.9 15.2-14.8l69.5 1c8.2 0.1 14.8 6.8 14.8 15z" fill="#21733e" p-id="1718"></path><path d="M883.4 887.9m-30.9 0a30.9 30.9 0 1 0 61.8 0 30.9 30.9 0 1 0-61.8 0Z" fill="#21733e" p-id="1719"></path><path d="M849.4 367.9m-20.7 0a20.7 20.7 0 1 0 41.4 0 20.7 20.7 0 1 0-41.4 0Z" fill="#21733e" p-id="1720"></path><path d="M849.5 97.9v30.7M849.5 138.6c-5.5 0-10-4.5-10-10V97.9c0-5.5 4.5-10 10-10s10 4.5 10 10v30.8c0 5.5-4.5 9.9-10 9.9zM849.5 180.4v30.8M849.5 221.2c-5.5 0-10-4.5-10-10v-30.8c0-5.5 4.5-10 10-10s10 4.5 10 10v30.8c0 5.5-4.5 10-10 10zM792.8 154.5h30.8M823.6 164.5h-30.8c-5.5 0-10-4.5-10-10s4.5-10 10-10h30.8c5.5 0 10 4.5 10 10s-4.5 10-10 10zM875.4 154.5h30.7M906.1 164.5h-30.8c-5.5 0-10-4.5-10-10s4.5-10 10-10h30.8c5.5 0 10 4.5 10 10s-4.4 10-10 10z" fill="#21733e" p-id="1721"></path><path d="M809.4 194.6l21.8-21.7M809.4 204.6c-2.6 0-5.1-1-7.1-2.9-3.9-3.9-3.9-10.2 0-14.1l21.8-21.8c3.9-3.9 10.2-3.9 14.1 0 3.9 3.9 3.9 10.2 0 14.1l-21.8 21.8c-1.9 1.9-4.4 2.9-7 2.9z" fill="#21733e" p-id="1722"></path><path d="M867.8 136.2l21.7-21.7M867.8 146.2c-2.6 0-5.1-1-7.1-2.9-3.9-3.9-3.9-10.2 0-14.1l21.8-21.8c3.9-3.9 10.2-3.9 14.1 0 3.9 3.9 3.9 10.2 0 14.1l-21.8 21.8c-1.9 2-4.5 2.9-7 2.9z" fill="#21733e" p-id="1723"></path><path d="M889.5 194.6l-21.7-21.7M889.5 204.6c-2.6 0-5.1-1-7.1-2.9l-21.8-21.8c-3.9-3.9-3.9-10.2 0-14.1 3.9-3.9 10.2-3.9 14.1 0l21.8 21.8c3.9 3.9 3.9 10.2 0 14.1-1.8 1.9-4.4 2.9-7 2.9z" fill="#21733e" p-id="1724"></path><path d="M831.2 136.2l-21.8-21.7M831.2 146.2c-2.6 0-5.1-1-7.1-2.9l-21.8-21.8c-3.9-3.9-3.9-10.2 0-14.1 3.9-3.9 10.2-3.9 14.1 0l21.8 21.8c3.9 3.9 3.9 10.2 0 14.1-1.9 2-4.5 2.9-7 2.9z" fill="#21733e" p-id="1725"></path></svg>