<?xml version="1.0" standalone="no"?><!DOCTYPE svg PUBLIC "-//W3C//DTD SVG 1.1//EN" "http://www.w3.org/Graphics/SVG/1.1/DTD/svg11.dtd"><svg t="1616885989528" class="icon" viewBox="0 0 1024 1024" version="1.1" xmlns="http://www.w3.org/2000/svg" p-id="11716" xmlns:xlink="http://www.w3.org/1999/xlink" width="128" height="128"><defs><style type="text/css"></style></defs><path d="M927.8 102.8c-71.7-21.1-147.5 21.2-169.1 94.4L624.1 654.1 164.3 543.3c-15.5-3.7-31.5-1.2-45.1 7.1-13.7 8.4-23.3 21.7-27 37.4-9.9 41.8-11 84.2-3.3 126.2 8 43.8 25.3 84.6 51.3 121.5 42 59.6 104.7 102.2 176.5 120 24.7 6.1 49.7 9.1 74.7 9.1 47.7 0 94.8-11.1 137.5-32.8 78.5-39.9 135.8-111.2 158-196l151.8-515.3c8.6-29.1 38-46.1 65.6-38 3.9 1.2 7.9 1.7 11.8 1.7 18 0 34.6-11.8 40-29.9 6.4-21.9-6.3-45-28.3-51.5z" p-id="11717" fill="#ffffff"></path></svg>