<?xml version="1.0" standalone="no"?><!DOCTYPE svg PUBLIC "-//W3C//DTD SVG 1.1//EN" "http://www.w3.org/Graphics/SVG/1.1/DTD/svg11.dtd"><svg t="1617289622934" class="icon" viewBox="0 0 1024 1024" version="1.1" xmlns="http://www.w3.org/2000/svg" p-id="17297" xmlns:xlink="http://www.w3.org/1999/xlink" width="128" height="128"><defs><style type="text/css"></style></defs><path d="M698.6 738H325.4l-11.9 118.2c-3.6 36.3 24.9 66.8 61.3 66.8h274.5c36.4 0 64.9-30.5 61.3-66.8l-12-118.2z" fill="#21733e" opacity=".4" p-id="17298"></path><path d="M777.1 310.5c0-20.6-16.7-37.5-37.3-37.5h-55.1l-41.5-138.5C630.4 92.3 592.3 64 548.3 64h-72.6c-44 0-82.1 28.3-94.8 70.5L339.4 273h-55.1c-20.6 0-37.3 16.9-37.3 37.5s16.7 37.5 37.3 37.5h42.3l-50.3 503.2c-2.8 27.8 6.4 55.5 25.1 76.2 18.7 20.7 45.5 32.5 73.4 32.5h274.5c27.9 0 54.6-11.9 73.4-32.5 18.7-20.7 27.9-48.5 25.1-76.2L697.4 348h42.3c20.7 0 37.4-16.9 37.4-37.5zM452.5 156c3.1-10.3 12.4-17.3 23.2-17.3h72.6c10.8 0 20.1 6.9 23.2 17.3l35.1 117H417.3l35.2-117z m220.9 702.7c0.9 9.3-3.5 15.7-6.2 18.7s-8.6 8-18 8H374.7c-9.4 0-15.3-5-18-8-2.7-3-7.1-9.4-6.2-18.7L401.7 348h220.7l51 510.7z" fill="#21733e" p-id="17299"></path><path d="M446.7 758h126.9c10.3 0 18.7-8.2 18.7-18.5s-8.4-18.5-18.7-18.5H446.7c-10.3 0-18.7 8.2-18.7 18.5s8.4 18.5 18.7 18.5z" fill="#21733e" p-id="17300"></path></svg>