<?xml version="1.0" standalone="no"?><!DOCTYPE svg PUBLIC "-//W3C//DTD SVG 1.1//EN" "http://www.w3.org/Graphics/SVG/1.1/DTD/svg11.dtd"><svg t="1617289682330" class="icon" viewBox="0 0 1057 1024" version="1.1" xmlns="http://www.w3.org/2000/svg" p-id="2730" xmlns:xlink="http://www.w3.org/1999/xlink" width="132.125" height="128"><defs><style type="text/css"></style></defs><path d="M528.833766 989.973944a440.366485 440.366485 0 1 1 440.366484-440.366485 440.724652 440.724652 0 0 1-440.366484 440.366485z m0-773.103748a332.916346 332.916346 0 1 0 332.916346 332.737263 333.09543 333.09543 0 0 0-332.916346-332.737263z" p-id="2731" fill="#21733e"></path><path d="M53.725069 361.569716a53.725069 53.725069 0 0 1-53.725069-53.725069V179.083564A179.083564 179.083564 0 0 1 179.083564 0h128.582a53.725069 53.725069 0 0 1 0 107.450139H179.083564a71.633426 71.633426 0 0 0-71.633425 71.633425v128.582a53.725069 53.725069 0 0 1-53.72507 53.904152zM1004.121545 361.569716a53.725069 53.725069 0 0 1-53.725069-53.725069V179.083564a71.633426 71.633426 0 0 0-71.633426-71.633425h-128.761083a53.725069 53.725069 0 0 1 0-107.450139h128.582a179.083564 179.083564 0 0 1 179.083564 179.083564v128.582a53.725069 53.725069 0 0 1-53.545986 53.904152z" p-id="2732" fill="#21733e"></path><path d="M704.693826 603.332528H475.108696V373.926482a53.725069 53.725069 0 1 1 107.450139 0v121.955908h122.134991a53.725069 53.725069 0 1 1 0 107.450138z" p-id="2733" fill="#21733e"></path><path d="M152.937364 1023.999821a53.725069 53.725069 0 0 1-37.965716-15.759354 53.725069 53.725069 0 0 1 0-75.931431l125.358495-125.358495a53.725069 53.725069 0 0 1 76.110515 75.931431l-125.358495 125.358495a53.725069 53.725069 0 0 1-38.144799 15.759354zM915.475181 1023.999821A53.725069 53.725069 0 0 1 877.509465 1008.240467l-125.358495-125.358495a53.725069 53.725069 0 0 1 75.573264-77.005932l125.358495 125.358495a53.725069 53.725069 0 0 1-37.965715 91.690785z" p-id="2734" fill="#21733e"></path></svg>