<?xml version="1.0" standalone="no"?><!DOCTYPE svg PUBLIC "-//W3C//DTD SVG 1.1//EN" "http://www.w3.org/Graphics/SVG/1.1/DTD/svg11.dtd"><svg t="1617272622048" class="icon" viewBox="0 0 1024 1024" version="1.1" xmlns="http://www.w3.org/2000/svg" p-id="12856" xmlns:xlink="http://www.w3.org/1999/xlink" width="128" height="128"><defs><style type="text/css"></style></defs><path d="M162.2 481.82c1-169.95 157.22-307.45 349.8-307.45s348.78 137.5 349.8 307.45" fill="#FFFFFF" p-id="12857"></path><path d="M173.07 481.82c0.55-62.18 23.16-122.63 62.35-170.83 41.27-50.76 97.88-87.7 160-107.65a383.73 383.73 0 0 1 208.61-7c64 15.91 123.71 48.88 169.11 97 42.31 44.86 70.93 103 76.62 164.7 0.73 7.89 1.09 15.81 1.16 23.74 0.12 14 21.87 14 21.74 0-0.6-67.76-25.41-132.4-67.74-185-43.45-54-104.12-92.94-169.77-114.19-70.92-23-148.69-25.21-221-7.24-67.67 16.82-131.37 52.17-179.24 103.17-45.85 48.86-75.76 111.07-82.3 177.94-0.83 8.41-1.24 16.86-1.31 25.31-0.12 14 21.62 14 21.74 0z" fill="#133131" p-id="12858"></path><path d="M246.17 448.23h50.48c14 0 14-21.75 0-21.75h-50.48c-14 0-14 21.75 0 21.75zM297.86 369.71h75.47c14 0 14-21.74 0-21.74h-75.47c-14 0-14 21.74 0 21.74z" fill="#133131" p-id="12859"></path><path d="M608.9 872.58c0 6.52-6.49 11.81-14.49 11.81H429.59c-8 0-14.49-5.29-14.49-11.81v-22.49c0-6.52 6.48-11.81 14.49-11.81h164.82c8 0 14.49 5.29 14.49 11.81z" fill="#F7ECBF" p-id="12860"></path><path d="M598 872.58c-0.15 2-20.76 0.94-21.54 0.94H433.58c-1.66 0-6.28 0.51-7.4-0.88-0.89-1.09-0.21-5.14-0.21-6.62v-13.27c0-3.65 1.63-3.47 5-3.6 3.79-0.15 7.61 0 11.4 0h148.05c1.71 0 6.67-0.52 7.61 1 1.26 2.08 0 8.78 0 11.16v11.25c0 14 21.75 14 21.75 0 0-7.41 0.32-14.89 0-22.28-0.62-14.1-12.42-22.48-25.79-22.89-10.87-0.34-21.8 0-32.68 0h-115c-13.48 0-30-2.1-38.49 11-5.45 8.37-3.64 20.13-3.64 29.67 0 4.92 0.08 9.72 2.46 14.21 4.31 8.14 13.09 12.39 22 12.89 9.07 0.5 18.27 0 27.35 0h116.4c10.62 0 24.48 1.91 34.32-2.87 7.93-3.85 12.41-11.17 13.07-19.81 0.44-5.86-5.32-10.87-10.88-10.87-6.25 0.1-10.42 5.09-10.9 10.97z" fill="#133131" p-id="12861"></path><path d="M512 847.38C717 847.38 883.35 701 884.43 520H139.57C140.65 701 307 847.38 512 847.38z" fill="#DD6E80" p-id="12862"></path><path d="M319.82 770.74a393.45 393.45 0 0 0 64.64 30c5.52 2 11.9-2.25 13.37-7.59 1.66-6-2.05-11.38-7.59-13.38A361 361 0 0 1 330.8 752c-12.12-7.05-23.07 11.73-11 18.78zM185.78 621.25c18.4 46 49.32 85.49 87.42 116.9 4.53 3.74 10.95 4.44 15.38 0 3.84-3.84 4.55-11.62 0-15.37-35-28.85-64.87-64.9-81.83-107.31-2.18-5.45-7.26-9.28-13.37-7.6-5.18 1.43-9.79 7.89-7.6 13.38zM152.05 596.1h696.19c9.44 0 19 0.5 28.48 0h1.27c4.67 0 4.67-7.25 0-7.25H181.8c-9.44 0-19.05-0.51-28.48 0h-1.27c-4.67 0-4.68 7.25 0 7.25zM140 545.36h708.2c9.47 0 19.11 0.51 28.57 0h1.25c4.67 0 4.67-7.24 0-7.24H169.79c-9.47 0-19.11-0.52-28.57 0h-1.25c-4.67 0-4.67 7.24 0 7.24zM175 560.6h56.77c7 0 7-10.87 0-10.87H175c-7 0-7 10.87 0 10.87zM175 583h56.77c7 0 7-10.88 0-10.88H175c-7 0-7 10.88 0 10.88z" fill="#FFFFFF" p-id="12863"></path><path d="M198 555.17v22.38c0 7 10.87 7 10.87 0v-22.38c0-7-10.87-7-10.87 0zM252.3 560.6h56.77c7 0 7-10.87 0-10.87H252.3c-7 0-7 10.87 0 10.87zM252.3 583h56.77c7 0 7-10.88 0-10.88H252.3c-7 0-7 10.88 0 10.88z" fill="#FFFFFF" p-id="12864"></path><path d="M275.25 555.17v22.38c0 7 10.87 7 10.87 0v-22.38c0-7-10.87-7-10.87 0zM329.61 560.6h56.77c7 0 7-10.87 0-10.87h-56.77c-7 0-7 10.87 0 10.87zM329.61 583h56.77c7 0 7-10.88 0-10.88h-56.77c-7 0-7 10.88 0 10.88z" fill="#FFFFFF" p-id="12865"></path><path d="M352.56 555.17v22.38c0 7 10.87 7 10.87 0v-22.38c0-7-10.87-7-10.87 0zM406.91 560.6h56.77c7 0 7-10.87 0-10.87h-56.77c-7 0-7 10.87 0 10.87zM406.91 583h56.77c7 0 7-10.88 0-10.88h-56.77c-7 0-7 10.88 0 10.88z" fill="#FFFFFF" p-id="12866"></path><path d="M429.86 555.17v22.38c0 7 10.87 7 10.87 0v-22.38c0-7-10.87-7-10.87 0zM484.22 560.6H541c7 0 7-10.87 0-10.87h-56.78c-7 0-7 10.87 0 10.87zM484.22 583H541c7 0 7-10.88 0-10.88h-56.78c-7 0-7 10.88 0 10.88z" fill="#FFFFFF" p-id="12867"></path><path d="M507.17 555.17v22.38c0 7 10.87 7 10.87 0v-22.38c0-7-10.87-7-10.87 0zM561.52 560.6h56.77c7 0 7-10.87 0-10.87h-56.77c-7 0-7 10.87 0 10.87zM561.52 583h56.77c7 0 7-10.88 0-10.88h-56.77c-7 0-7 10.88 0 10.88z" fill="#FFFFFF" p-id="12868"></path><path d="M584.47 555.17v22.38c0 7 10.87 7 10.87 0v-22.38c0-7-10.87-7-10.87 0zM638.83 560.6h56.77c7 0 7-10.87 0-10.87h-56.77c-7 0-7 10.87 0 10.87zM638.83 583h56.77c7 0 7-10.88 0-10.88h-56.77c-7 0-7 10.88 0 10.88z" fill="#FFFFFF" p-id="12869"></path><path d="M661.78 555.17v22.38c0 7 10.87 7 10.87 0v-22.38c0-7-10.87-7-10.87 0zM716.13 560.6h56.78c7 0 7-10.87 0-10.87h-56.78c-7 0-7 10.87 0 10.87zM716.13 583h56.78c7 0 7-10.88 0-10.88h-56.78c-7 0-7 10.88 0 10.88z" fill="#FFFFFF" p-id="12870"></path><path d="M739.08 555.17v22.38c0 7 10.88 7 10.88 0v-22.38c0-7-10.88-7-10.88 0zM793.44 560.6h56.77c7 0 7-10.87 0-10.87h-56.77c-7 0-7 10.87 0 10.87zM793.44 583h56.77c7 0 7-10.88 0-10.88h-56.77c-7 0-7 10.88 0 10.88z" fill="#FFFFFF" p-id="12871"></path><path d="M816.39 555.17v22.38c0 7 10.87 7 10.87 0v-22.38c0-7-10.87-7-10.87 0z" fill="#FFFFFF" p-id="12872"></path><path d="M512 858.25c77.44-0.16 155-20.73 220.76-62 60.84-38.17 110.77-93.36 138.68-159.84A307.67 307.67 0 0 0 895.3 520a11 11 0 0 0-10.87-10.87h-653c-30.16 0-60.48-0.91-90.63 0h-1.24A11 11 0 0 0 128.7 520c0.62 71.86 26.9 140.47 71.75 196.27 46.06 57.32 110.35 98.73 180 121.4A428.84 428.84 0 0 0 512 858.25c14 0 14-21.71 0-21.74-73.52-0.15-146.57-19.58-209.1-58.6-56.63-35.34-103.74-86.8-129.9-148.57A286.78 286.78 0 0 1 150.44 520l-10.87 10.9h714.75c9.53 0 19.36 0.7 28.87 0h1.24L873.56 520c-0.58 66.56-24.86 131.18-66.85 182.71C762.88 756.52 702.83 795.72 637 817a409 409 0 0 1-125 19.52c-14 0.02-14 21.76 0 21.73z" fill="#133131" p-id="12873"></path></svg>