<?xml version="1.0" standalone="no"?><!DOCTYPE svg PUBLIC "-//W3C//DTD SVG 1.1//EN" "http://www.w3.org/Graphics/SVG/1.1/DTD/svg11.dtd"><svg t="1616882557003" class="icon" viewBox="0 0 1024 1024" version="1.1" xmlns="http://www.w3.org/2000/svg" p-id="9604" xmlns:xlink="http://www.w3.org/1999/xlink" width="128" height="128"><defs><style type="text/css"></style></defs><path d="M133.2 939.5c-6.4 0-12.8-1.5-18.9-4.6-20.5-10.5-28.6-35.6-18.2-56.1L525.3 37.7c10.5-20.5 35.6-28.6 56.1-18.2C601.8 30 610 55.1 599.5 75.6L170.4 916.8c-7.4 14.4-22 22.7-37.2 22.7zM215.1 990.9c-9.1 0-18.3-3-26-9.1-18-14.4-20.9-40.6-6.5-58.6l589.9-737.4c14.4-18 40.6-20.9 58.6-6.5 18 14.4 20.9 40.6 6.5 58.6L247.7 975.3c-8.2 10.3-20.3 15.6-32.6 15.6z" p-id="9605" fill="#ffffff"></path></svg>