<?xml version="1.0" standalone="no"?><!DOCTYPE svg PUBLIC "-//W3C//DTD SVG 1.1//EN" "http://www.w3.org/Graphics/SVG/1.1/DTD/svg11.dtd"><svg t="1617272287025" class="icon" viewBox="0 0 1024 1024" version="1.1" xmlns="http://www.w3.org/2000/svg" p-id="1902" xmlns:xlink="http://www.w3.org/1999/xlink" width="128" height="128"><defs><style type="text/css"></style></defs><path d="M661.6 914.4c92-88 103.2-234.4 24.8-335.2-19.2-24-40.8-44-65.6-60-8.8-5.6-16.8-12-23.2-20-6.4-8-12-16.8-16-26.4-10.4-27.2-26.4-52-47.2-75.2C449.6 303.2 304 288 200.8 363.2c-120 86.4-140 222.4-95.2 406.4 12 49.6 20 121.6 20 123.2 1.6 0.8 71.2 20.8 117.6 41.6 174.4 77.6 312 81.6 418.4-20z" fill="#995076" p-id="1903"></path><path d="M661.6 914.4c33.6-32 56-71.2 67.2-113.6 6.4-24.8 0-60-12-98.4-12.8-40.8-70.4-40.8-84 0 0 0.8 0 0.8-0.8 1.6-6.4 20-16 39.2-28 56.8-5.6 8.8-18.4 9.6-25.6 0.8L560 739.2c-8-9.6-23.2-12.8-33.6-4.8-11.2 8-12.8 24-4 34.4l24.8 29.6c6.4 7.2 4 18.4-4 24-6.4 4-15.2 2.4-20-3.2L396.8 668.8c-8-9.6-23.2-12.8-33.6-4.8-11.2 8-12.8 24-4 34.4l94.4 112.8c10.4 12-1.6 29.6-16.8 25.6-24-7.2-46.4-21.6-64-42.4L232 625.6c-23.2-28-60.8-42.4-96-34.4-21.6 4.8-41.6 17.6-51.2 46.4 2.4 40.8 9.6 84.8 20.8 131.2 12 49.6 20 121.6 20 123.2 1.6 0.8 71.2 20.8 117.6 41.6 148.8 66.4 271.2 78.4 370.4 16 11.2-7.2 20.8-14.4 30.4-22.4 6.4-3.2 12-8 17.6-12.8z" fill="#72324D" p-id="1904"></path><path d="M471.2 428.8c-4.8 0-10.4-1.6-14.4-4.8-34.4-26.4-78.4-38.4-122.4-36-12.8 0.8-24.8-8.8-25.6-22.4-0.8-13.6 8.8-24.8 22.4-25.6 56-4 110.4 12 154.4 44.8 10.4 8 12.8 23.2 4.8 33.6-4.8 6.4-12 10.4-19.2 10.4zM266.4 404c-1.6 0-3.2 0-4.8-0.8-1.6 0-3.2-0.8-4.8-1.6-1.6-0.8-3.2-1.6-4-2.4-1.6-0.8-2.4-1.6-4-3.2-0.8-0.8-2.4-2.4-3.2-4-0.8-1.6-1.6-2.4-2.4-4-0.8-1.6-0.8-3.2-1.6-4.8s-0.8-3.2-0.8-4.8c0-1.6 0-3.2 0.8-4.8s0.8-3.2 1.6-4.8c0.8-1.6 1.6-3.2 2.4-4 0.8-1.6 1.6-2.4 3.2-4 0.8-0.8 2.4-2.4 4-3.2s2.4-1.6 4-2.4c1.6-0.8 3.2-0.8 4.8-1.6 3.2-0.8 6.4-0.8 9.6 0 1.6 0 3.2 0.8 4.8 1.6 1.6 0.8 3.2 1.6 4 2.4 1.6 0.8 2.4 1.6 4 3.2 0.8 0.8 2.4 2.4 3.2 4 0.8 1.6 1.6 2.4 2.4 4 0.8 1.6 0.8 3.2 1.6 4.8s0.8 3.2 0.8 4.8c0 1.6 0 3.2-0.8 4.8s-0.8 3.2-1.6 4.8c-0.8 1.6-1.6 3.2-2.4 4-0.8 1.6-1.6 2.4-3.2 4-0.8 0.8-2.4 2.4-4 3.2-1.6 0.8-2.4 1.6-4 2.4-1.6 0.8-3.2 0.8-4.8 1.6-1.6 0.8-3.2 0.8-4.8 0.8z" fill="#FFFFFF" p-id="1905"></path><path d="M84.8 952c-7.2 0-13.6-3.2-18.4-8.8-8.8-10.4-7.2-25.6 3.2-33.6 34.4-28.8 80-34.4 132-17.6 12.8 4 19.2 17.6 15.2 30.4-4 12.8-17.6 19.2-30.4 15.2-35.2-12-64-8.8-85.6 8.8-5.6 4-11.2 5.6-16 5.6zM718.4 658.4c-8.8 0-17.6-5.6-21.6-14.4-23.2-50.4-51.2-93.6-93.6-144.8-35.2-42.4-72.8-80-102.4-102.4-10.4-8-12.8-23.2-4.8-33.6 8-10.4 23.2-12.8 33.6-4.8 32 24.8 72.8 64.8 110.4 109.6 45.6 54.4 76 100.8 100.8 155.2 5.6 12 0 26.4-12 32-3.2 2.4-6.4 3.2-10.4 3.2z" fill="#444B54" p-id="1906"></path><path d="M687.2 633.6h-6.4c-36.8-3.2-81.6-36.8-129.6-95.2-8-10.4-7.2-25.6 3.2-33.6s25.6-7.2 33.6 3.2c59.2 72 93.6 80 100 78.4 10.4-8 24.8-6.4 33.6 3.2 8.8 10.4 7.2 25.6-3.2 33.6-5.6 4.8-16 10.4-31.2 10.4z" fill="#444B54" p-id="1907"></path><path d="M569.6 546.4c-11.2 0-20.8-7.2-23.2-18.4-3.2-12.8 4.8-25.6 17.6-28.8l174.4-41.6c12.8-3.2 25.6 4.8 28.8 17.6s-4.8 25.6-17.6 28.8l-174.4 41.6c-1.6 0.8-3.2 0.8-5.6 0.8z" fill="#444B54" p-id="1908"></path><path d="M569.6 546.4c-7.2 0-13.6-3.2-18.4-8.8-8.8-10.4-7.2-25.6 3.2-33.6l172-144c10.4-8.8 25.6-7.2 33.6 3.2 8.8 10.4 7.2 25.6-3.2 33.6l-172 144c-4 4-9.6 5.6-15.2 5.6z" fill="#444B54" p-id="1909"></path><path d="M569.6 546.4c-3.2 0-6.4-0.8-9.6-2.4-12-5.6-17.6-19.2-12.8-31.2l71.2-164c5.6-12 19.2-17.6 31.2-12.8 12 5.6 17.6 19.2 12.8 31.2L592 532c-4 8.8-12.8 14.4-22.4 14.4z" fill="#444B54" p-id="1910"></path><path d="M468.8 1016c-68 0-145.6-20-234.4-59.2-13.6-5.6-29.6-12.8-49.6-19.2-12.8-4.8-19.2-18.4-14.4-30.4 4.8-12.8 18.4-19.2 30.4-14.4 20.8 7.2 38.4 14.4 52.8 20.8 174.4 77.6 298.4 72 391.2-16 83.2-79.2 92.8-212.8 22.4-303.2-16.8-21.6-36.8-40-59.2-53.6-10.4-6.4-20-15.2-28.8-24.8-8-9.6-14.4-20.8-19.2-32.8-10.4-24.8-24-48-42.4-68-76.8-84.8-209.6-99.2-302.4-32C112 458.4 84.8 580 129.6 764.8c3.2 12.8 6.4 28 8.8 44.8 2.4 12.8-6.4 25.6-19.2 28-12.8 2.4-25.6-6.4-28-19.2-2.4-16-5.6-29.6-8.8-41.6-50.4-206.4-17.6-344 104-432 112-81.6 273.6-64.8 366.4 38.4 22.4 24.8 39.2 52 51.2 82.4 3.2 7.2 7.2 13.6 12 20 4.8 5.6 10.4 11.2 17.6 15.2 27.2 17.6 52 39.2 72 65.6 84.8 110.4 72.8 271.2-27.2 367.2-59.2 54.4-128 82.4-209.6 82.4z" fill="#444B54" p-id="1911"></path><path d="M611.2 654.4c65.6-11.2 130.4 50.4 144.8 137.6 14.4 87.2-26.4 166.4-92 177.6-183.2 31.2-371.2 28.8-559.2-5.6l-29.6-5.6c-40.8-7.2-53.6-80.8-16.8-101.6l26.4-14.4c166.4-93.6 343.2-156.8 526.4-188z" fill="#FF9166" p-id="1912"></path><path d="M611.2 654.4c65.6-11.2 130.4 50.4 144.8 137.6 14.4 87.2-26.4 166.4-92 177.6-183.2 31.2-371.2 28.8-559.2-5.6l-29.6-5.6c-40.8-7.2-53.6-80.8-16.8-101.6l26.4-14.4c166.4-93.6 343.2-156.8 526.4-188z" fill="#FF9166" p-id="1913"></path><path d="M835.2 803.2c-11.2 0-21.6-8-24-20-2.4-12.8 6.4-25.6 20-28l149.6-25.6c12.8-2.4 25.6 6.4 28 20 2.4 12.8-6.4 25.6-20 28l-149.6 25.6h-4z" fill="#444B54" p-id="1914"></path><path d="M843.2 890.4c-54.4 0-101.6-39.2-110.4-93.6-2.4-12.8 6.4-25.6 20-28 12.8-2.4 25.6 6.4 28 20 5.6 32.8 34.4 56 68 53.6l80.8-5.6c13.6-0.8 24.8 8.8 25.6 22.4 0.8 13.6-8.8 24.8-22.4 25.6l-80.8 5.6h-8.8zM806.4 727.2c-9.6 0-19.2-6.4-22.4-16-4-12.8 2.4-26.4 15.2-30.4l92-32c12.8-4 26.4 2.4 30.4 15.2 4 12.8-2.4 26.4-15.2 30.4l-92 32c-3.2 0-5.6 0.8-8 0.8z" fill="#444B54" p-id="1915"></path><path d="M662.4 946.4c0.8 0 0.8 0 1.6-0.8 0.8 0 2.4-0.8 3.2-1.6h1.6c0.8-0.8 1.6-1.6 3.2-1.6l0.8-0.8 2.4-2.4 0.8-0.8c0.8-0.8 1.6-1.6 1.6-2.4l0.8-0.8c0.8-0.8 0.8-1.6 1.6-3.2 0-0.8 0-0.8 0.8-1.6 0-0.8 0.8-2.4 0.8-3.2v-1.6-3.2-2.4-0.8c0-0.8 0-0.8-0.8-1.6 0-0.8 0-1.6-0.8-2.4 0-0.8-0.8-1.6-0.8-2.4 0 0 0-0.8-0.8-0.8 0-0.8-21.6-42.4-36-123.2-2.4-12.8-13.6-22.4-26.4-21.6-13.6 1.6-23.2 14.4-20.8 28 4.8 29.6 11.2 53.6 16.8 73.6 5.6 18.4-7.2 37.6-26.4 40-4 0.8-8 0.8-11.2 1.6-15.2 1.6-29.6-7.2-33.6-22.4l-6.4-21.6c-3.2-12-15.2-20-28-17.6-12.8 2.4-21.6 15.2-19.2 27.2 0 0.8 0 1.6 0.8 3.2 5.6 19.2-8 39.2-28.8 40-82.4 3.2-165.6 0-248.8-9.6-35.2-4-41.6 43.2-4 48 152.8 17.6 305.6 13.6 454.4-11.2h1.6z" fill="#BC6157" p-id="1916"></path><path d="M336 846.4v-1.6c-2.4-12.8-14.4-21.6-28-20s-21.6 14.4-20 28v1.6c2.4 12.8 14.4 21.6 28 20 12.8-2.4 21.6-14.4 20-28z" fill="#BC6157" p-id="1917"></path><path d="M403.2 1016c-100 0-200.8-9.6-301.6-28l-29.6-5.6c-28.8-5.6-51.2-31.2-56.8-65.6-5.6-34.4 7.2-66.4 32-80.8l26.4-14.4c168-95.2 348-160 534.4-191.2 47.2-8 88 5.6 119.2 38.4 26.4 28 44.8 68.8 52.8 119.2 26.4 157.6-58.4 196.8-111.2 205.6-88 15.2-176.8 22.4-265.6 22.4z m212-337.6C435.2 708.8 260.8 771.2 96.8 864l-26.4 14.4c-8.8 4.8-10.4 19.2-8.8 30.4 1.6 11.2 8.8 24.8 18.4 26.4l29.6 5.6c184.8 34.4 370.4 36 550.4 5.6 23.2-4 94.4-16 72-150.4-7.2-40.8-20.8-73.6-40.8-94.4-19.2-20.8-44-28.8-76-23.2z m-4-24z" fill="#444B54" p-id="1918"></path><path d="M708.8 824.8c-11.2 0-21.6-8-24-20-4.8-28-12.8-50.4-24-64-10.4-12.8-22.4-17.6-38.4-15.2-12.8 2.4-25.6-6.4-28-20s6.4-25.6 20-28c33.6-5.6 62.4 5.6 84 32.8 16 20 27.2 48.8 33.6 85.6 2.4 12.8-6.4 25.6-20 28 0 0-1.6 0.8-3.2 0.8zM518.4 746.4c-11.2 0-20.8-7.2-23.2-18.4-3.2-12.8 4.8-25.6 17.6-28.8 4.8-0.8 9.6-2.4 13.6-3.2 12.8-3.2 25.6 4.8 28.8 18.4s-4.8 25.6-18.4 28.8c-4.8 0.8-8.8 2.4-13.6 3.2h-4.8z" fill="#FFFFFF" p-id="1919"></path><path d="M872 1016H435.2c-13.6 0-24-10.4-24-24s10.4-24 24-24H872c13.6 0 24 10.4 24 24s-10.4 24-24 24z" fill="#444B54" p-id="1920"></path><path d="M992 1016c-6.4 0-12.8-2.4-16.8-7.2-4.8-4.8-7.2-10.4-7.2-16.8 0-1.6 0-3.2 0.8-4.8 0-1.6 0.8-3.2 1.6-4.8 0.8-1.6 1.6-2.4 2.4-4 0.8-1.6 1.6-2.4 3.2-4 8.8-8.8 24.8-8.8 33.6 0 0.8 0.8 2.4 2.4 3.2 4 0.8 1.6 1.6 2.4 2.4 4 0.8 1.6 0.8 3.2 1.6 4.8 0 1.6 0.8 3.2 0.8 4.8 0 6.4-2.4 12.8-7.2 16.8-5.6 4.8-12 7.2-18.4 7.2z" fill="#444B54" p-id="1921"></path></svg>